<mxfile host="Electron" agent="Mozilla/5.0 (Windows NT 10.0; Win64; x64) AppleWebKit/537.36 (KHTML, like Gecko) draw.io/26.0.16 Chrome/132.0.6834.196 Electron/34.2.0 Safari/537.36" version="26.0.16">
  <diagram name="Page-1" id="90a13364-a465-7bf4-72fc-28e22215d7a0">
    <mxGraphModel dx="1572" dy="697" grid="1" gridSize="10" guides="1" tooltips="1" connect="1" arrows="1" fold="1" page="1" pageScale="1.5" pageWidth="1169" pageHeight="826" background="none" math="0" shadow="0">
      <root>
        <mxCell id="0" style=";html=1;" />
        <mxCell id="1" style=";html=1;" parent="0" />
        <mxCell id="3a17f1ce550125da-13" style="edgeStyle=elbowEdgeStyle;rounded=0;html=1;startArrow=none;startFill=0;jettySize=auto;orthogonalLoop=1;fontSize=18;elbow=vertical;" parent="1" source="3a17f1ce550125da-2" target="3a17f1ce550125da-4" edge="1">
          <mxGeometry relative="1" as="geometry" />
        </mxCell>
        <mxCell id="3a17f1ce550125da-14" style="edgeStyle=elbowEdgeStyle;rounded=0;html=1;startArrow=none;startFill=0;jettySize=auto;orthogonalLoop=1;fontSize=18;elbow=vertical;" parent="1" source="3a17f1ce550125da-2" target="3a17f1ce550125da-5" edge="1">
          <mxGeometry relative="1" as="geometry" />
        </mxCell>
        <mxCell id="3a17f1ce550125da-15" style="edgeStyle=elbowEdgeStyle;rounded=0;html=1;startArrow=none;startFill=0;jettySize=auto;orthogonalLoop=1;fontSize=18;elbow=vertical;" parent="1" source="3a17f1ce550125da-2" target="3a17f1ce550125da-6" edge="1">
          <mxGeometry relative="1" as="geometry" />
        </mxCell>
        <mxCell id="3a17f1ce550125da-16" style="edgeStyle=elbowEdgeStyle;rounded=0;html=1;startArrow=none;startFill=0;jettySize=auto;orthogonalLoop=1;fontSize=18;elbow=vertical;" parent="1" source="3a17f1ce550125da-2" target="3a17f1ce550125da-7" edge="1">
          <mxGeometry relative="1" as="geometry" />
        </mxCell>
        <mxCell id="3a17f1ce550125da-2" value="Backend - Node.js + Express" style="whiteSpace=wrap;html=1;shadow=1;fontSize=18;fillColor=#f5f5f5;strokeColor=#666666;" parent="1" vertex="1">
          <mxGeometry x="787" y="454" width="170" height="280" as="geometry" />
        </mxCell>
        <mxCell id="3a17f1ce550125da-4" value="Modulo - Usuarios" style="whiteSpace=wrap;html=1;shadow=1;fontSize=18;fillColor=#f5f5f5;strokeColor=#666666;" parent="1" vertex="1">
          <mxGeometry x="1037" y="444" width="120" height="60" as="geometry" />
        </mxCell>
        <mxCell id="3a17f1ce550125da-5" value="Modulo - Tareas" style="whiteSpace=wrap;html=1;shadow=1;fontSize=18;fillColor=#f5f5f5;strokeColor=#666666;" parent="1" vertex="1">
          <mxGeometry x="1037" y="524" width="120" height="60" as="geometry" />
        </mxCell>
        <mxCell id="3a17f1ce550125da-6" value="authRouter" style="whiteSpace=wrap;html=1;shadow=1;fontSize=18;fillColor=#f5f5f5;strokeColor=#666666;" parent="1" vertex="1">
          <mxGeometry x="1037" y="604" width="120" height="60" as="geometry" />
        </mxCell>
        <mxCell id="3a17f1ce550125da-7" value="taskRouter" style="whiteSpace=wrap;html=1;shadow=1;fontSize=18;fillColor=#f5f5f5;strokeColor=#666666;" parent="1" vertex="1">
          <mxGeometry x="1037" y="684" width="120" height="60" as="geometry" />
        </mxCell>
        <mxCell id="3a17f1ce550125da-21" style="edgeStyle=elbowEdgeStyle;rounded=0;html=1;startArrow=none;startFill=0;jettySize=auto;orthogonalLoop=1;fontSize=18;elbow=vertical;" parent="1" source="3a17f1ce550125da-9" edge="1">
          <mxGeometry relative="1" as="geometry">
            <mxPoint x="1262" y="726" as="sourcePoint" />
            <mxPoint x="1157" y="726" as="targetPoint" />
          </mxGeometry>
        </mxCell>
        <mxCell id="3a17f1ce550125da-9" value="Cliente Http - Postman - Web Browser" style="whiteSpace=wrap;html=1;shadow=1;fontSize=18;fillColor=#f5f5f5;strokeColor=#666666;" parent="1" vertex="1">
          <mxGeometry x="1323" y="597" width="120" height="150" as="geometry" />
        </mxCell>
        <mxCell id="3a17f1ce550125da-11" value="Test - Jest" style="whiteSpace=wrap;html=1;shadow=1;fontSize=18;fillColor=#f5f5f5;strokeColor=#666666;" parent="1" vertex="1">
          <mxGeometry x="597" y="666" width="120" height="60" as="geometry" />
        </mxCell>
        <mxCell id="HqOZVo_Lbv5KGAoMZGdi-8" value="" style="group" vertex="1" connectable="0" parent="1">
          <mxGeometry x="799.5" y="734" width="145" height="160" as="geometry" />
        </mxCell>
        <mxCell id="3a17f1ce550125da-17" style="edgeStyle=elbowEdgeStyle;rounded=0;html=1;startArrow=none;startFill=0;jettySize=auto;orthogonalLoop=1;fontSize=18;" parent="HqOZVo_Lbv5KGAoMZGdi-8" source="3a17f1ce550125da-10" target="3a17f1ce550125da-2" edge="1">
          <mxGeometry relative="1" as="geometry">
            <Array as="points">
              <mxPoint x="107.5" y="20" />
            </Array>
          </mxGeometry>
        </mxCell>
        <mxCell id="3a17f1ce550125da-10" value="Middleware - JWT Tokens - Validadores" style="whiteSpace=wrap;html=1;shadow=1;fontSize=18;fillColor=#f5f5f5;strokeColor=#666666;" parent="HqOZVo_Lbv5KGAoMZGdi-8" vertex="1">
          <mxGeometry y="40" width="145" height="120" as="geometry" />
        </mxCell>
        <mxCell id="3a17f1ce550125da-22" style="edgeStyle=elbowEdgeStyle;rounded=0;html=1;startArrow=none;startFill=0;jettySize=auto;orthogonalLoop=1;fontSize=18;" parent="HqOZVo_Lbv5KGAoMZGdi-8" source="3a17f1ce550125da-10" target="3a17f1ce550125da-2" edge="1">
          <mxGeometry relative="1" as="geometry">
            <mxPoint x="137.5" y="50" as="sourcePoint" />
            <mxPoint x="137.5" y="10" as="targetPoint" />
            <Array as="points">
              <mxPoint x="127.5" y="20" />
              <mxPoint x="107.5" y="20" />
            </Array>
          </mxGeometry>
        </mxCell>
        <mxCell id="3a17f1ce550125da-23" style="edgeStyle=elbowEdgeStyle;rounded=0;html=1;startArrow=none;startFill=0;jettySize=auto;orthogonalLoop=1;fontSize=18;" parent="HqOZVo_Lbv5KGAoMZGdi-8" edge="1">
          <mxGeometry relative="1" as="geometry">
            <mxPoint x="87.5" y="40" as="sourcePoint" />
            <mxPoint x="87.5" as="targetPoint" />
            <Array as="points">
              <mxPoint x="87.5" y="20" />
              <mxPoint x="87.5" y="20" />
            </Array>
          </mxGeometry>
        </mxCell>
        <mxCell id="3a17f1ce550125da-24" style="edgeStyle=elbowEdgeStyle;rounded=0;html=1;startArrow=none;startFill=0;jettySize=auto;orthogonalLoop=1;fontSize=18;" parent="HqOZVo_Lbv5KGAoMZGdi-8" edge="1">
          <mxGeometry relative="1" as="geometry">
            <mxPoint x="57.5" as="sourcePoint" />
            <mxPoint x="57.5" y="40" as="targetPoint" />
            <Array as="points">
              <mxPoint x="57.5" y="20" />
              <mxPoint x="87.5" y="30" />
            </Array>
          </mxGeometry>
        </mxCell>
        <mxCell id="3a17f1ce550125da-25" style="edgeStyle=elbowEdgeStyle;rounded=0;html=1;startArrow=none;startFill=0;jettySize=auto;orthogonalLoop=1;fontSize=18;" parent="HqOZVo_Lbv5KGAoMZGdi-8" edge="1">
          <mxGeometry relative="1" as="geometry">
            <mxPoint x="37.5" as="sourcePoint" />
            <mxPoint x="37.5" y="40" as="targetPoint" />
            <Array as="points">
              <mxPoint x="37.5" y="20" />
              <mxPoint x="67.5" y="30" />
            </Array>
          </mxGeometry>
        </mxCell>
        <mxCell id="3a17f1ce550125da-26" style="edgeStyle=elbowEdgeStyle;rounded=0;html=1;startArrow=none;startFill=0;jettySize=auto;orthogonalLoop=1;fontSize=18;" parent="HqOZVo_Lbv5KGAoMZGdi-8" edge="1">
          <mxGeometry relative="1" as="geometry">
            <mxPoint x="17.5" as="sourcePoint" />
            <mxPoint x="17.5" y="40" as="targetPoint" />
            <Array as="points">
              <mxPoint x="17.5" y="20" />
              <mxPoint x="47.5" y="30" />
            </Array>
          </mxGeometry>
        </mxCell>
        <mxCell id="HqOZVo_Lbv5KGAoMZGdi-10" style="edgeStyle=elbowEdgeStyle;rounded=0;html=1;startArrow=none;startFill=0;jettySize=auto;orthogonalLoop=1;fontSize=18;" edge="1" parent="1" source="HqOZVo_Lbv5KGAoMZGdi-11">
          <mxGeometry relative="1" as="geometry">
            <Array as="points">
              <mxPoint x="842" y="390" />
            </Array>
          </mxGeometry>
        </mxCell>
        <mxCell id="HqOZVo_Lbv5KGAoMZGdi-11" value="Middleware - errorHandler" style="whiteSpace=wrap;html=1;shadow=1;fontSize=18;fillColor=#f5f5f5;strokeColor=#666666;rotation=0;" vertex="1" parent="1">
          <mxGeometry x="799.5" y="280" width="145" height="120" as="geometry" />
        </mxCell>
        <mxCell id="HqOZVo_Lbv5KGAoMZGdi-12" style="edgeStyle=elbowEdgeStyle;rounded=0;html=1;startArrow=none;startFill=0;jettySize=auto;orthogonalLoop=1;fontSize=18;" edge="1" parent="1" source="3a17f1ce550125da-2" target="HqOZVo_Lbv5KGAoMZGdi-11">
          <mxGeometry relative="1" as="geometry">
            <mxPoint x="811" y="360" as="sourcePoint" />
            <mxPoint x="812" y="400" as="targetPoint" />
            <Array as="points">
              <mxPoint x="820" y="420" />
              <mxPoint x="822" y="390" />
              <mxPoint x="842" y="390" />
            </Array>
          </mxGeometry>
        </mxCell>
        <mxCell id="HqOZVo_Lbv5KGAoMZGdi-13" style="edgeStyle=elbowEdgeStyle;rounded=0;html=1;startArrow=none;startFill=0;jettySize=auto;orthogonalLoop=1;fontSize=18;" edge="1" parent="1" source="3a17f1ce550125da-2" target="HqOZVo_Lbv5KGAoMZGdi-11">
          <mxGeometry relative="1" as="geometry">
            <mxPoint x="850" y="390" as="sourcePoint" />
            <mxPoint x="851" y="430" as="targetPoint" />
            <Array as="points">
              <mxPoint x="851" y="410" />
              <mxPoint x="851" y="410" />
            </Array>
          </mxGeometry>
        </mxCell>
        <mxCell id="HqOZVo_Lbv5KGAoMZGdi-14" style="edgeStyle=elbowEdgeStyle;rounded=0;html=1;startArrow=none;startFill=0;jettySize=auto;orthogonalLoop=1;fontSize=18;" edge="1" parent="1">
          <mxGeometry relative="1" as="geometry">
            <mxPoint x="900" y="400" as="sourcePoint" />
            <mxPoint x="900" y="454" as="targetPoint" />
            <Array as="points">
              <mxPoint x="900" y="420" />
              <mxPoint x="861" y="380" />
            </Array>
          </mxGeometry>
        </mxCell>
        <mxCell id="HqOZVo_Lbv5KGAoMZGdi-15" style="edgeStyle=elbowEdgeStyle;rounded=0;html=1;startArrow=none;startFill=0;jettySize=auto;orthogonalLoop=1;fontSize=18;" edge="1" parent="1" source="HqOZVo_Lbv5KGAoMZGdi-11" target="3a17f1ce550125da-2">
          <mxGeometry relative="1" as="geometry">
            <mxPoint x="858" y="400" as="sourcePoint" />
            <mxPoint x="858" y="454" as="targetPoint" />
            <Array as="points">
              <mxPoint x="897" y="400" />
              <mxPoint x="866" y="390" />
            </Array>
          </mxGeometry>
        </mxCell>
        <mxCell id="HqOZVo_Lbv5KGAoMZGdi-18" style="edgeStyle=elbowEdgeStyle;rounded=0;html=1;startArrow=none;startFill=0;jettySize=auto;orthogonalLoop=1;fontSize=18;elbow=vertical;" edge="1" parent="1" source="3a17f1ce550125da-9">
          <mxGeometry relative="1" as="geometry">
            <mxPoint x="1262" y="619" as="sourcePoint" />
            <mxPoint x="1157" y="619" as="targetPoint" />
          </mxGeometry>
        </mxCell>
        <mxCell id="HqOZVo_Lbv5KGAoMZGdi-19" style="edgeStyle=elbowEdgeStyle;rounded=0;html=1;startArrow=none;startFill=0;jettySize=auto;orthogonalLoop=1;fontSize=18;elbow=vertical;" edge="1" parent="1" target="3a17f1ce550125da-9">
          <mxGeometry relative="1" as="geometry">
            <mxPoint x="1157" y="646" as="sourcePoint" />
            <mxPoint x="1262" y="646" as="targetPoint" />
          </mxGeometry>
        </mxCell>
        <mxCell id="HqOZVo_Lbv5KGAoMZGdi-20" style="edgeStyle=elbowEdgeStyle;rounded=0;html=1;startArrow=none;startFill=0;jettySize=auto;orthogonalLoop=1;fontSize=18;elbow=vertical;" edge="1" parent="1" target="3a17f1ce550125da-9">
          <mxGeometry relative="1" as="geometry">
            <mxPoint x="1157" y="699" as="sourcePoint" />
            <mxPoint x="1262" y="699" as="targetPoint" />
          </mxGeometry>
        </mxCell>
        <mxCell id="HqOZVo_Lbv5KGAoMZGdi-21" value="&lt;font style=&quot;font-size: 14px;&quot;&gt;Http Request&lt;/font&gt;" style="edgeLabel;html=1;align=center;verticalAlign=middle;resizable=0;points=[];" vertex="1" connectable="0" parent="HqOZVo_Lbv5KGAoMZGdi-20">
          <mxGeometry x="0.2651" relative="1" as="geometry">
            <mxPoint as="offset" />
          </mxGeometry>
        </mxCell>
        <mxCell id="HqOZVo_Lbv5KGAoMZGdi-22" style="edgeStyle=elbowEdgeStyle;rounded=0;html=1;startArrow=none;startFill=0;jettySize=auto;orthogonalLoop=1;fontSize=18;elbow=vertical;" edge="1" parent="1">
          <mxGeometry relative="1" as="geometry">
            <mxPoint x="717" y="695" as="sourcePoint" />
            <mxPoint x="787" y="679" as="targetPoint" />
            <Array as="points">
              <mxPoint x="650" y="679" />
            </Array>
          </mxGeometry>
        </mxCell>
        <mxCell id="HqOZVo_Lbv5KGAoMZGdi-23" style="edgeStyle=elbowEdgeStyle;rounded=0;html=1;startArrow=none;startFill=0;jettySize=auto;orthogonalLoop=1;fontSize=18;elbow=vertical;" edge="1" parent="1">
          <mxGeometry relative="1" as="geometry">
            <mxPoint x="787" y="707" as="sourcePoint" />
            <mxPoint x="717" y="707" as="targetPoint" />
            <Array as="points">
              <mxPoint x="740" y="707" />
            </Array>
          </mxGeometry>
        </mxCell>
        <mxCell id="HqOZVo_Lbv5KGAoMZGdi-24" value="&lt;font style=&quot;font-size: 18px;&quot;&gt;Modulo - AppError&lt;/font&gt;" style="rounded=0;whiteSpace=wrap;html=1;" vertex="1" parent="1">
          <mxGeometry x="1027" y="310" width="140" height="60" as="geometry" />
        </mxCell>
        <mxCell id="HqOZVo_Lbv5KGAoMZGdi-25" value="" style="endArrow=classic;startArrow=classic;html=1;rounded=0;" edge="1" parent="1" source="HqOZVo_Lbv5KGAoMZGdi-11" target="HqOZVo_Lbv5KGAoMZGdi-24">
          <mxGeometry width="50" height="50" relative="1" as="geometry">
            <mxPoint x="960" y="430" as="sourcePoint" />
            <mxPoint x="1010" y="380" as="targetPoint" />
          </mxGeometry>
        </mxCell>
        <mxCell id="3a17f1ce550125da-8" value="Base de datos - MongoDB" style="whiteSpace=wrap;html=1;shadow=1;fontSize=18;fillColor=#f5f5f5;strokeColor=#666666;" parent="1" vertex="1">
          <mxGeometry x="1323" y="430" width="120" height="150" as="geometry" />
        </mxCell>
        <mxCell id="HqOZVo_Lbv5KGAoMZGdi-28" value="" style="endArrow=classic;startArrow=classic;html=1;rounded=0;" edge="1" parent="1" source="3a17f1ce550125da-4" target="3a17f1ce550125da-8">
          <mxGeometry width="50" height="50" relative="1" as="geometry">
            <mxPoint x="1220" y="480" as="sourcePoint" />
            <mxPoint x="1270" y="430" as="targetPoint" />
          </mxGeometry>
        </mxCell>
        <mxCell id="HqOZVo_Lbv5KGAoMZGdi-29" value="" style="endArrow=classic;startArrow=classic;html=1;rounded=0;" edge="1" parent="1" source="3a17f1ce550125da-5" target="3a17f1ce550125da-8">
          <mxGeometry width="50" height="50" relative="1" as="geometry">
            <mxPoint x="1220" y="570" as="sourcePoint" />
            <mxPoint x="1270" y="520" as="targetPoint" />
          </mxGeometry>
        </mxCell>
        <mxCell id="HqOZVo_Lbv5KGAoMZGdi-30" value="MongoDb Driver" style="edgeLabel;html=1;align=center;verticalAlign=middle;resizable=0;points=[];" vertex="1" connectable="0" parent="HqOZVo_Lbv5KGAoMZGdi-29">
          <mxGeometry x="-0.189" y="1" relative="1" as="geometry">
            <mxPoint as="offset" />
          </mxGeometry>
        </mxCell>
        <mxCell id="HqOZVo_Lbv5KGAoMZGdi-31" value="&lt;font style=&quot;font-size: 14px;&quot;&gt;JsonWebToken&lt;/font&gt;" style="rounded=0;whiteSpace=wrap;html=1;" vertex="1" parent="1">
          <mxGeometry x="597" y="804" width="120" height="60" as="geometry" />
        </mxCell>
        <mxCell id="HqOZVo_Lbv5KGAoMZGdi-32" value="" style="endArrow=classic;startArrow=classic;html=1;rounded=0;" edge="1" parent="1" source="HqOZVo_Lbv5KGAoMZGdi-31" target="3a17f1ce550125da-10">
          <mxGeometry width="50" height="50" relative="1" as="geometry">
            <mxPoint x="730" y="870" as="sourcePoint" />
            <mxPoint x="780" y="820" as="targetPoint" />
          </mxGeometry>
        </mxCell>
        <mxCell id="HqOZVo_Lbv5KGAoMZGdi-33" value="&lt;font style=&quot;font-size: 24px;&quot;&gt;Diagrama Arquitectura - Prueba Tecnica - Instaleap&lt;/font&gt;" style="rounded=1;whiteSpace=wrap;html=1;" vertex="1" parent="1">
          <mxGeometry x="310" y="334" width="380" height="120" as="geometry" />
        </mxCell>
      </root>
    </mxGraphModel>
  </diagram>
</mxfile>
